<?xml version="1.0" standalone="no"?>
<!DOCTYPE svg PUBLIC "-//W3C//DTD SVG 20010904//EN"
 "http://www.w3.org/TR/2001/REC-SVG-20010904/DTD/svg10.dtd">
<svg version="1.0" xmlns="http://www.w3.org/2000/svg"
 width="512.000000pt" height="512.000000pt" viewBox="0 0 512.000000 512.000000"
 preserveAspectRatio="xMidYMid meet">
<metadata>
Created by potrace 1.11, written by Peter Selinger 2001-2013
</metadata>
<g transform="translate(0.000000,512.000000) scale(0.100000,-0.100000)"
fill="#000000" stroke="none">
<path d="M2000 4803 c-277 -12 -596 -41 -860 -79 -286 -41 -693 -125 -706
-146 -9 -14 77 -6 253 26 475 84 989 117 1853 117 910 0 1386 -32 1914 -127
86 -15 143 -21 148 -16 15 15 5 18 -172 56 -410 88 -795 136 -1314 166 -156 9
-937 11 -1116 3z"/>
<path d="M236 4203 c-3 -4 -6 -30 -6 -58 l0 -52 108 -12 c138 -16 186 -28 244
-59 88 -47 121 -120 138 -310 13 -157 14 -3005 0 -3160 -14 -151 -34 -227 -76
-284 -37 -52 -97 -95 -144 -105 -85 -16 2 -23 311 -23 224 0 338 3 334 10 -3
5 -14 10 -23 10 -61 1 -174 89 -205 160 -52 116 -50 53 -54 1829 -3 1405 -2
1651 10 1639 8 -7 28 -51 46 -98 31 -80 96 -245 475 -1197 86 -216 156 -395
156 -398 0 -3 8 -24 19 -48 10 -23 31 -73 46 -112 15 -38 33 -83 40 -100 7
-16 45 -113 85 -215 40 -102 78 -198 85 -215 16 -34 218 -544 245 -617 10 -26
24 -60 30 -75 7 -15 60 -149 119 -298 l107 -270 115 -3 116 -3 52 138 c29 76
84 221 123 323 38 102 78 205 88 230 10 25 51 131 90 235 113 299 200 527 215
565 22 55 137 357 215 565 39 105 75 199 80 210 5 11 41 106 80 210 40 105 77
201 82 215 17 41 24 57 98 255 40 105 108 285 152 400 44 116 85 224 91 242 7
17 17 31 22 32 7 1 10 -554 10 -1647 0 -1724 0 -1719 -42 -1819 -19 -48 -67
-97 -110 -115 -21 -9 -47 -20 -58 -25 -23 -9 360 -15 753 -11 149 2 249 6 237
11 -11 5 -37 16 -58 25 -84 35 -128 116 -147 272 -14 117 -14 3200 0 3307 12
85 35 165 58 201 42 64 140 103 312 122 57 6 108 14 112 16 13 8 9 91 -4 101
-8 5 -57 6 -118 2 -58 -4 -291 -7 -518 -8 l-412 -1 -17 -37 c-8 -21 -19 -47
-23 -58 -41 -107 -183 -479 -240 -630 -40 -104 -108 -284 -152 -400 -44 -115
-109 -284 -143 -375 -35 -91 -96 -250 -135 -355 -87 -231 -229 -603 -240 -630
-5 -11 -34 -87 -65 -170 -32 -82 -68 -177 -80 -210 -13 -33 -55 -145 -95 -250
-121 -323 -116 -311 -128 -289 -5 10 -60 150 -122 309 -61 160 -122 317 -136
350 -13 33 -24 63 -24 68 0 4 -9 26 -19 50 -10 23 -96 242 -191 487 -171 444
-213 553 -233 600 -15 39 -14 35 -222 575 -108 281 -203 524 -210 540 -7 17
-20 48 -28 70 -45 124 -74 200 -106 280 l-36 90 -70 -5 c-107 -8 -936 -6 -971
2 -18 4 -34 4 -38 1z"/>
</g>
</svg>
